<svg width="18" height="18" viewBox="0 0 18 18" fill="none" xmlns="http://www.w3.org/2000/svg">
<path d="M11.1075 9.21C11.5822 8.70018 11.8497 8.03158 11.8575 7.335C11.8575 6.58311 11.5588 5.86202 11.0271 5.33035C10.4955 4.79869 9.77439 4.5 9.0225 4.5C8.27061 4.5 7.54952 4.79869 7.01785 5.33035C6.48619 5.86202 6.1875 6.58311 6.1875 7.335C6.19533 8.03158 6.46277 8.70018 6.9375 9.21C6.27649 9.53915 5.70767 10.0275 5.28219 10.631C4.85671 11.2345 4.58792 11.9343 4.5 12.6675C4.47812 12.8664 4.53615 13.0659 4.66133 13.222C4.78651 13.3781 4.96859 13.4781 5.1675 13.5C5.36641 13.5219 5.56587 13.4638 5.72199 13.3387C5.87812 13.2135 5.97812 13.0314 6 12.8325C6.0895 12.1059 6.44163 11.437 6.99007 10.952C7.5385 10.467 8.24536 10.1992 8.9775 10.1992C9.70964 10.1992 10.4165 10.467 10.9649 10.952C11.5134 11.437 11.8655 12.1059 11.955 12.8325C11.9759 13.0248 12.0702 13.2016 12.2184 13.326C12.3665 13.4504 12.557 13.5127 12.75 13.5H12.8325C13.0291 13.4774 13.2088 13.378 13.3324 13.2234C13.456 13.0689 13.5136 12.8718 13.4925 12.675C13.4111 11.9457 13.1508 11.2478 12.7347 10.6433C12.3186 10.0388 11.7597 9.54645 11.1075 9.21V9.21ZM9 8.67C8.73596 8.67 8.47785 8.5917 8.25831 8.44501C8.03877 8.29832 7.86766 8.08982 7.76662 7.84588C7.66558 7.60194 7.63914 7.33352 7.69065 7.07456C7.74216 6.81559 7.86931 6.57772 8.05601 6.39101C8.24272 6.20431 8.48059 6.07716 8.73956 6.02565C8.99852 5.97414 9.26694 6.00058 9.51088 6.10162C9.75482 6.20266 9.96332 6.37378 10.11 6.59331C10.2567 6.81285 10.335 7.07096 10.335 7.335C10.335 7.68906 10.1943 8.02863 9.94399 8.27899C9.69363 8.52935 9.35407 8.67 9 8.67V8.67ZM14.25 1.5H3.75C3.15326 1.5 2.58097 1.73705 2.15901 2.15901C1.73705 2.58097 1.5 3.15326 1.5 3.75V14.25C1.5 14.8467 1.73705 15.419 2.15901 15.841C2.58097 16.2629 3.15326 16.5 3.75 16.5H14.25C14.8467 16.5 15.419 16.2629 15.841 15.841C16.2629 15.419 16.5 14.8467 16.5 14.25V3.75C16.5 3.15326 16.2629 2.58097 15.841 2.15901C15.419 1.73705 14.8467 1.5 14.25 1.5ZM15 14.25C15 14.4489 14.921 14.6397 14.7803 14.7803C14.6397 14.921 14.4489 15 14.25 15H3.75C3.55109 15 3.36032 14.921 3.21967 14.7803C3.07902 14.6397 3 14.4489 3 14.25V3.75C3 3.55109 3.07902 3.36032 3.21967 3.21967C3.36032 3.07902 3.55109 3 3.75 3H14.25C14.4489 3 14.6397 3.07902 14.7803 3.21967C14.921 3.36032 15 3.55109 15 3.75V14.25Z" fill="#FFFFFF"/>
</svg>
