<svg width="17" height="17" viewBox="0 0 17 17" fill="none" xmlns="http://www.w3.org/2000/svg">
<path d="M16.1358 7.34543C16.0692 7.26325 15.9849 7.19705 15.8893 7.1517C15.7937 7.10634 15.6892 7.08299 15.5833 7.08335H14.1667V6.37502C14.1667 5.81143 13.9428 5.27093 13.5443 4.87241C13.1458 4.4739 12.6053 4.25002 12.0417 4.25002H7.59334L7.36668 3.54168C7.21973 3.12605 6.94716 2.76641 6.58673 2.51259C6.2263 2.25876 5.79585 2.12332 5.35501 2.12502H2.83334C2.26976 2.12502 1.72926 2.3489 1.33074 2.74741C0.932227 3.14593 0.708344 3.68643 0.708344 4.25002V12.75C0.708344 13.3136 0.932227 13.8541 1.33074 14.2526C1.72926 14.6511 2.26976 14.875 2.83334 14.875H13.0333C13.5159 14.8736 13.9836 14.708 14.3595 14.4055C14.7354 14.103 14.9971 13.6815 15.1017 13.2104L16.2917 7.94752C16.3132 7.84192 16.3104 7.73279 16.2834 7.62846C16.2564 7.52412 16.2059 7.42732 16.1358 7.34543ZM3.80376 12.9058C3.76778 13.0656 3.67753 13.208 3.54838 13.3087C3.41923 13.4095 3.25917 13.4624 3.09543 13.4583H2.83334C2.64548 13.4583 2.46531 13.3837 2.33248 13.2509C2.19964 13.118 2.12501 12.9379 2.12501 12.75V4.25002C2.12501 4.06215 2.19964 3.88199 2.33248 3.74915C2.46531 3.61631 2.64548 3.54168 2.83334 3.54168H5.35501C5.50947 3.53362 5.66233 3.57634 5.79024 3.66331C5.91814 3.75029 6.01406 3.87674 6.06334 4.02335L6.44584 5.18502C6.4913 5.32013 6.57646 5.43838 6.6902 5.52432C6.80394 5.61025 6.94095 5.65987 7.08334 5.66668H12.0417C12.2295 5.66668 12.4097 5.74131 12.5425 5.87415C12.6754 6.00699 12.75 6.18715 12.75 6.37502V7.08335H5.66668C5.50294 7.07935 5.34287 7.13221 5.21372 7.23295C5.08458 7.33368 4.99433 7.47606 4.95834 7.63585L3.80376 12.9058ZM13.7204 12.9058C13.6844 13.0656 13.5942 13.208 13.465 13.3087C13.3359 13.4095 13.1758 13.4624 13.0121 13.4583H5.10709C5.14368 13.3794 5.16987 13.2961 5.18501 13.2104L6.23334 8.50002H14.7333L13.7204 12.9058Z" fill="#FFFFFF"/>
</svg>
