<svg width="18" height="20" viewBox="0 0 18 20" fill="none" xmlns="http://www.w3.org/2000/svg">
<path d="M16.0799 10.42L9.89992 16.61C9.08973 17.33 8.03506 17.7133 6.95164 17.6814C5.86821 17.6495 4.83792 17.2049 4.07149 16.4384C3.30506 15.672 2.86043 14.6417 2.82853 13.5583C2.79664 12.4749 3.1799 11.4202 3.89992 10.61L11.8999 2.61C12.3775 2.1563 13.0112 1.90333 13.6699 1.90333C14.3287 1.90333 14.9623 2.1563 15.4399 2.61C15.9053 3.08159 16.1662 3.71747 16.1662 4.38C16.1662 5.04253 15.9053 5.67841 15.4399 6.15L8.53992 13.04C8.47163 13.1135 8.38952 13.1729 8.29829 13.2147C8.20706 13.2565 8.10849 13.28 8.0082 13.2837C7.90791 13.2874 7.80788 13.2713 7.7138 13.2364C7.61973 13.2014 7.53346 13.1483 7.45992 13.08C7.38638 13.0117 7.32701 12.9296 7.2852 12.8384C7.24339 12.7471 7.21995 12.6486 7.21624 12.5483C7.21253 12.448 7.2286 12.348 7.26355 12.2539C7.29849 12.1598 7.35163 12.0735 7.41992 12L12.5499 6.88C12.7382 6.6917 12.844 6.4363 12.844 6.17C12.844 5.9037 12.7382 5.6483 12.5499 5.46C12.3616 5.2717 12.1062 5.16591 11.8399 5.16591C11.5736 5.16591 11.3182 5.2717 11.1299 5.46L5.99992 10.6C5.74322 10.8547 5.53948 11.1577 5.40045 11.4915C5.26141 11.8253 5.18983 12.1834 5.18983 12.545C5.18983 12.9066 5.26141 13.2647 5.40045 13.5985C5.53948 13.9323 5.74322 14.2353 5.99992 14.49C6.52429 14.9895 7.22072 15.2681 7.94492 15.2681C8.66911 15.2681 9.36554 14.9895 9.88992 14.49L16.7799 7.59C17.5748 6.73695 18.0075 5.60867 17.987 4.44286C17.9664 3.27706 17.4941 2.16475 16.6696 1.34027C15.8452 0.515789 14.7329 0.0435177 13.5671 0.0229484C12.4012 0.0023791 11.273 0.435118 10.4199 1.23L2.41992 9.23C1.34111 10.4248 0.764944 11.9899 0.811449 13.599C0.857954 15.2081 1.52355 16.7372 2.66955 17.8678C3.81556 18.9983 5.35359 19.6431 6.9632 19.6677C8.57281 19.6923 10.1299 19.0949 11.3099 18L17.4999 11.82C17.5932 11.7268 17.6671 11.6161 17.7176 11.4942C17.768 11.3724 17.794 11.2419 17.794 11.11C17.794 10.9781 17.768 10.8476 17.7176 10.7257C17.6671 10.6039 17.5932 10.4932 17.4999 10.4C17.4067 10.3068 17.296 10.2328 17.1742 10.1823C17.0523 10.1319 16.9218 10.1059 16.7899 10.1059C16.6581 10.1059 16.5275 10.1319 16.4057 10.1823C16.2838 10.2328 16.1732 10.3068 16.0799 10.4V10.42Z" fill="#626262"/>
</svg>
