<svg width="40" height="40" viewBox="0 0 40 40" fill="none" xmlns="http://www.w3.org/2000/svg">
<path d="M20.3916 27.8907L20.3928 27.8922C20.5474 28.0827 20.7428 28.2363 20.9646 28.3414C21.1852 28.4461 21.4264 28.5002 21.6705 28.4999C21.9831 28.5029 22.29 28.4166 22.5553 28.2512C22.8217 28.0852 23.0349 27.8463 23.1697 27.5629C23.3046 27.2794 23.3554 26.9633 23.3161 26.6519C23.2771 26.342 23.1504 26.0496 22.9511 25.8091L18.2728 20.0061L23.1196 14.1958L23.1201 14.1952C23.3989 13.8598 23.5331 13.4275 23.4931 12.9932L22.9996 13.0387L23.4931 12.9932C23.453 12.559 23.242 12.1584 22.9066 11.8797C22.5712 11.601 22.1388 11.4669 21.7045 11.5069C21.2704 11.547 20.8699 11.7577 20.5911 12.0929C20.591 12.093 20.591 12.0931 20.5909 12.0932L14.876 18.9492L14.876 18.9492L14.8738 18.9518C14.6321 19.2457 14.5 19.6144 14.5 19.995C14.5 20.3746 14.6315 20.7425 14.8721 21.0361L20.3916 27.8907Z" fill="#47ADDD" stroke="#47ADDD"/>
<circle cx="20" cy="20" r="18" stroke="#47ADDD" stroke-width="4"/>
</svg>
