<svg width="23" height="26" viewBox="0 0 23 26" fill="none" xmlns="http://www.w3.org/2000/svg">
<path fill-rule="evenodd" clip-rule="evenodd" d="M16.6111 14.0556H12.7778C12.075 14.0556 11.5 14.6306 11.5 15.3334V19.1667C11.5 19.8695 12.075 20.4445 12.7778 20.4445H16.6111C17.3139 20.4445 17.8889 19.8695 17.8889 19.1667V15.3334C17.8889 14.6306 17.3139 14.0556 16.6111 14.0556ZM16.6111 1.27778V2.55556H6.38889V1.27778C6.38889 0.575 5.81389 0 5.11111 0C4.40833 0 3.83333 0.575 3.83333 1.27778V2.55556H2.55556C1.13722 2.55556 0.0127778 3.70556 0.0127778 5.11111L0 23C0 24.4056 1.13722 25.5556 2.55556 25.5556H20.4444C21.85 25.5556 23 24.4056 23 23V5.11111C23 3.70556 21.85 2.55556 20.4444 2.55556H19.1667V1.27778C19.1667 0.575 18.5917 0 17.8889 0C17.1861 0 16.6111 0.575 16.6111 1.27778ZM19.1667 22.9999H3.83341C3.13063 22.9999 2.55563 22.4249 2.55563 21.7221V8.94437H20.4445V21.7221C20.4445 22.4249 19.8695 22.9999 19.1667 22.9999Z" fill="#9475EC"/>
</svg>
