<svg width="28" height="28" viewBox="0 0 28 28" fill="none" xmlns="http://www.w3.org/2000/svg">
<path d="M28 8.55556V22.9444C28 24.2853 27.4674 25.5712 26.5193 26.5193C25.5712 27.4674 24.2853 28 22.9444 28H5.05556C3.71474 28 2.42884 27.4674 1.48074 26.5193C0.532637 25.5712 0 24.2853 0 22.9444V8.55556H28ZM6.61111 18.6667C6.09541 18.6667 5.60084 18.8715 5.23618 19.2362C4.87153 19.6008 4.66667 20.0954 4.66667 20.6111C4.66667 21.1268 4.87153 21.6214 5.23618 21.986C5.60084 22.3507 6.09541 22.5556 6.61111 22.5556C7.12681 22.5556 7.62139 22.3507 7.98604 21.986C8.3507 21.6214 8.55556 21.1268 8.55556 20.6111C8.55556 20.0954 8.3507 19.6008 7.98604 19.2362C7.62139 18.8715 7.12681 18.6667 6.61111 18.6667V18.6667ZM14 18.6667C13.4843 18.6667 12.9897 18.8715 12.6251 19.2362C12.2604 19.6008 12.0556 20.0954 12.0556 20.6111C12.0556 21.1268 12.2604 21.6214 12.6251 21.986C12.9897 22.3507 13.4843 22.5556 14 22.5556C14.5157 22.5556 15.0103 22.3507 15.3749 21.986C15.7396 21.6214 15.9444 21.1268 15.9444 20.6111C15.9444 20.0954 15.7396 19.6008 15.3749 19.2362C15.0103 18.8715 14.5157 18.6667 14 18.6667V18.6667ZM6.61111 11.6667C6.09541 11.6667 5.60084 11.8715 5.23618 12.2362C4.87153 12.6008 4.66667 13.0954 4.66667 13.6111C4.66667 14.1268 4.87153 14.6214 5.23618 14.986C5.60084 15.3507 6.09541 15.5556 6.61111 15.5556C7.12681 15.5556 7.62139 15.3507 7.98604 14.986C8.3507 14.6214 8.55556 14.1268 8.55556 13.6111C8.55556 13.0954 8.3507 12.6008 7.98604 12.2362C7.62139 11.8715 7.12681 11.6667 6.61111 11.6667V11.6667ZM14 11.6667C13.4843 11.6667 12.9897 11.8715 12.6251 12.2362C12.2604 12.6008 12.0556 13.0954 12.0556 13.6111C12.0556 14.1268 12.2604 14.6214 12.6251 14.986C12.9897 15.3507 13.4843 15.5556 14 15.5556C14.5157 15.5556 15.0103 15.3507 15.3749 14.986C15.7396 14.6214 15.9444 14.1268 15.9444 13.6111C15.9444 13.0954 15.7396 12.6008 15.3749 12.2362C15.0103 11.8715 14.5157 11.6667 14 11.6667V11.6667ZM21.3889 11.6667C20.8732 11.6667 20.3786 11.8715 20.014 12.2362C19.6493 12.6008 19.4444 13.0954 19.4444 13.6111C19.4444 14.1268 19.6493 14.6214 20.014 14.986C20.3786 15.3507 20.8732 15.5556 21.3889 15.5556C21.9046 15.5556 22.3992 15.3507 22.7638 14.986C23.1285 14.6214 23.3333 14.1268 23.3333 13.6111C23.3333 13.0954 23.1285 12.6008 22.7638 12.2362C22.3992 11.8715 21.9046 11.6667 21.3889 11.6667ZM22.9444 0C24.2853 0 25.5712 0.532637 26.5193 1.48074C27.4674 2.42884 28 3.71474 28 5.05556V6.22222H0V5.05556C0 3.71474 0.532637 2.42884 1.48074 1.48074C2.42884 0.532637 3.71474 0 5.05556 0H22.9444Z" fill="#828596"/>
</svg>
