<svg width="30" height="30" viewBox="0 0 30 30" fill="none" xmlns="http://www.w3.org/2000/svg">
<path d="M0.838649 0.838649C1.3758 0.301662 2.10423 0 2.86376 0C3.62329 0 4.35172 0.301662 4.88887 0.838649L15.0173 10.9671L25.1457 0.838649C25.6859 0.316881 26.4095 0.0281681 27.1605 0.0346944C27.9115 0.0412206 28.63 0.342464 29.161 0.873542C29.6921 1.40462 29.9934 2.12304 29.9999 2.87407C30.0064 3.6251 29.7177 4.34865 29.1959 4.88887L19.0675 15.0173L29.1959 25.1457C29.7177 25.6859 30.0064 26.4095 29.9999 27.1605C29.9934 27.9115 29.6921 28.63 29.161 29.161C28.63 29.6921 27.9115 29.9934 27.1605 29.9999C26.4095 30.0064 25.6859 29.7177 25.1457 29.1959L15.0173 19.0675L4.88887 29.1959C4.34865 29.7177 3.6251 30.0064 2.87407 29.9999C2.12304 29.9934 1.40462 29.6921 0.873542 29.161C0.342464 28.63 0.0412206 27.9115 0.0346944 27.1605C0.0281681 26.4095 0.316881 25.6859 0.838649 25.1457L10.9671 15.0173L0.838649 4.88887C0.301662 4.35172 0 3.62329 0 2.86376C0 2.10423 0.301662 1.3758 0.838649 0.838649Z" fill="#9D9D9D"/>
</svg>
