<svg width="20" height="20" viewBox="0 0 20 20" fill="none" xmlns="http://www.w3.org/2000/svg">
<path d="M18.4492 0.19199C18.7534 0.318728 19.0295 0.504443 19.2616 0.738425C19.4956 0.970496 19.6813 1.2466 19.808 1.55081C19.9347 1.85501 20 2.1813 20 2.51086C20 2.84041 19.9347 3.1667 19.808 3.47091C19.6813 3.77511 19.4956 4.05122 19.2616 4.28329L13.5199 10L19.2616 15.7167C19.4956 15.9488 19.6813 16.2249 19.808 16.5291C19.9347 16.8333 20 17.1596 20 17.4891C20 17.8187 19.9347 18.145 19.808 18.4492C19.6813 18.7534 19.4956 19.0295 19.2616 19.2616C19.0295 19.4956 18.7534 19.6813 18.4492 19.808C18.145 19.9347 17.8187 20 17.4891 20C17.1596 20 16.8333 19.9347 16.5291 19.808C16.2249 19.6813 15.9488 19.4956 15.7167 19.2616L10 13.5199L4.28329 19.2616C4.05122 19.4956 3.77511 19.6813 3.47091 19.808C3.1667 19.9347 2.84041 20 2.51086 20C2.1813 20 1.85501 19.9347 1.55081 19.808C1.2466 19.6813 0.970496 19.4956 0.738425 19.2616C0.504443 19.0295 0.318728 18.7534 0.19199 18.4492C0.0652516 18.145 0 17.8187 0 17.4891C0 17.1596 0.0652516 16.8333 0.19199 16.5291C0.318728 16.2249 0.504443 15.9488 0.738425 15.7167L6.4801 10L0.738425 4.28329C0.268348 3.81321 0.00426031 3.17565 0.00426032 2.51086C0.00426034 1.84607 0.268348 1.2085 0.738425 0.738425C1.2085 0.268348 1.84607 0.00426034 2.51086 0.00426032C3.17565 0.00426031 3.81321 0.268348 4.28329 0.738425L10 6.4801L15.7167 0.738425C15.9488 0.504443 16.2249 0.318728 16.5291 0.19199C16.8333 0.0652516 17.1596 0 17.4891 0C17.8187 0 18.145 0.0652516 18.4492 0.19199Z" fill="white"/>
</svg>
