<svg width="16" height="21" viewBox="0 0 16 21" fill="none" xmlns="http://www.w3.org/2000/svg">
<path d="M9 4.75V0H4.75C4.15326 0 3.58097 0.237053 3.15901 0.65901C2.73705 1.08097 2.5 1.65326 2.5 2.25V15.25C2.5 15.8467 2.73705 16.419 3.15901 16.841C3.58097 17.2629 4.15326 17.5 4.75 17.5H13.75C14.0455 17.5 14.3381 17.4418 14.611 17.3287C14.884 17.2157 15.1321 17.0499 15.341 16.841C15.5499 16.6321 15.7157 16.384 15.8287 16.111C15.9418 15.8381 16 15.5455 16 15.25V7H11.25C10.6533 7 10.081 6.76295 9.65901 6.34099C9.23705 5.91903 9 5.34674 9 4.75ZM10.5 4.75V0.5L15.5 5.5H11.25C11.0511 5.5 10.8603 5.42098 10.7197 5.28033C10.579 5.13968 10.5 4.94891 10.5 4.75ZM1.503 2.627C1.06357 2.78182 0.683011 3.06917 0.413806 3.44943C0.144601 3.82968 1.79383e-05 4.2841 0 4.75V15.254C0 16.5138 0.500445 17.722 1.39124 18.6128C2.28204 19.5036 3.49022 20.004 4.75 20.004H11.244C11.7094 20.0041 12.1634 19.86 12.5434 19.5913C12.9235 19.3227 13.2109 18.9428 13.366 18.504H4.75C3.88805 18.504 3.0614 18.1616 2.4519 17.5521C1.84241 16.9426 1.5 16.116 1.5 15.254L1.503 2.627V2.627Z" fill="#47ADDD"/>
</svg>
