<svg width="15" height="15" viewBox="0 0 15 15" fill="none" xmlns="http://www.w3.org/2000/svg">
<path d="M12.75 4.125C12.75 3.62772 12.5525 3.15081 12.2008 2.79917C11.8492 2.44754 11.3723 2.25 10.875 2.25H4.125C3.62772 2.25 3.15081 2.44754 2.79917 2.79917C2.44754 3.15081 2.25 3.62772 2.25 4.125V4.5H12.75V4.125Z" fill="#555555"/>
<path d="M12.75 7.2V5.25H2.25V10.875C2.25 11.3723 2.44754 11.8492 2.79917 12.2008C3.15081 12.5525 3.62772 12.75 4.125 12.75H7.2C6.80337 11.9736 6.66295 11.0915 6.79888 10.2303C6.93482 9.36909 7.34013 8.57311 7.95662 7.95662C8.57311 7.34013 9.36909 6.93482 10.2303 6.79888C11.0915 6.66295 11.9736 6.80337 12.75 7.2Z" fill="#555555"/>
<path d="M14.25 10.875C14.25 11.3182 14.1627 11.7571 13.9931 12.1666C13.8235 12.576 13.5749 12.9481 13.2615 13.2615C12.9481 13.5749 12.576 13.8235 12.1666 13.9931C11.7571 14.1627 11.3182 14.25 10.875 14.25C10.4318 14.25 9.99292 14.1627 9.58344 13.9931C9.17397 13.8235 8.80191 13.5749 8.48851 13.2615C8.17512 12.9481 7.92652 12.576 7.75691 12.1666C7.5873 11.7571 7.5 11.3182 7.5 10.875C7.5 9.97989 7.85558 9.12145 8.48851 8.48851C9.12145 7.85558 9.97989 7.5 10.875 7.5C11.7701 7.5 12.6286 7.85558 13.2615 8.48851C13.8944 9.12145 14.25 9.97989 14.25 10.875ZM12.6405 9.4845C12.6057 9.44958 12.5643 9.42187 12.5187 9.40297C12.4732 9.38406 12.4243 9.37433 12.375 9.37433C12.3257 9.37433 12.2768 9.38406 12.2313 9.40297C12.1857 9.42187 12.1443 9.44958 12.1095 9.4845L10.125 11.4698L9.6405 10.9845C9.60563 10.9496 9.56424 10.922 9.51869 10.9031C9.47313 10.8842 9.42431 10.8745 9.375 10.8745C9.32569 10.8745 9.27687 10.8842 9.23131 10.9031C9.18576 10.922 9.14437 10.9496 9.1095 10.9845C9.07463 11.0194 9.04698 11.0608 9.02811 11.1063C9.00924 11.1519 8.99953 11.2007 8.99953 11.25C8.99953 11.2993 9.00924 11.3481 9.02811 11.3937C9.04698 11.4392 9.07463 11.4806 9.1095 11.5155L9.8595 12.2655C9.89433 12.3004 9.93572 12.3281 9.98128 12.347C10.0268 12.3659 10.0757 12.3757 10.125 12.3757C10.1743 12.3757 10.2232 12.3659 10.2687 12.347C10.3143 12.3281 10.3557 12.3004 10.3905 12.2655L12.6405 10.0155C12.6754 9.98067 12.7031 9.93928 12.722 9.89372C12.7409 9.84817 12.7507 9.79933 12.7507 9.75C12.7507 9.70067 12.7409 9.65183 12.722 9.60628C12.7031 9.56072 12.6754 9.51933 12.6405 9.4845Z" fill="#555555"/>
</svg>
