<svg width="15" height="15" viewBox="0 0 15 15" fill="none" xmlns="http://www.w3.org/2000/svg">
<path d="M12.75 4.125C12.75 3.62772 12.5525 3.15081 12.2008 2.79917C11.8492 2.44754 11.3723 2.25 10.875 2.25H4.125C3.62772 2.25 3.15081 2.44754 2.79917 2.79917C2.44754 3.15081 2.25 3.62772 2.25 4.125V4.5H12.75V4.125Z" fill="#555555"/>
<path d="M12.75 7.2V5.25H2.25V10.875C2.25 11.3723 2.44754 11.8492 2.79917 12.2008C3.15081 12.5525 3.62772 12.75 4.125 12.75H7.2C6.80337 11.9736 6.66295 11.0915 6.79888 10.2303C6.93482 9.36909 7.34013 8.57311 7.95662 7.95662C8.57311 7.34013 9.36909 6.93482 10.2303 6.79888C11.0915 6.66295 11.9736 6.80337 12.75 7.2Z" fill="#555555"/>
<path d="M10.875 14.25C11.7701 14.25 12.6286 13.8944 13.2615 13.2615C13.8944 12.6286 14.25 11.7701 14.25 10.875C14.25 9.97989 13.8944 9.12145 13.2615 8.48851C12.6286 7.85558 11.7701 7.5 10.875 7.5C9.97989 7.5 9.12145 7.85558 8.48851 8.48851C7.85558 9.12145 7.5 9.97989 7.5 10.875C7.5 11.7701 7.85558 12.6286 8.48851 13.2615C9.12145 13.8944 9.97989 14.25 10.875 14.25ZM10.5 9.375C10.5 9.27554 10.5395 9.18016 10.6098 9.10983C10.6802 9.03951 10.7755 9 10.875 9C10.9745 9 11.0698 9.03951 11.1402 9.10983C11.2105 9.18016 11.25 9.27554 11.25 9.375V10.5H12C12.0995 10.5 12.1948 10.5395 12.2652 10.6098C12.3355 10.6802 12.375 10.7755 12.375 10.875C12.375 10.9745 12.3355 11.0698 12.2652 11.1402C12.1948 11.2105 12.0995 11.25 12 11.25H10.875C10.7755 11.25 10.6802 11.2105 10.6098 11.1402C10.5395 11.0698 10.5 10.9745 10.5 10.875V9.375Z" fill="#555555"/>
</svg>
