<svg width="15" height="19" viewBox="0 0 15 19" fill="none" xmlns="http://www.w3.org/2000/svg">
<path d="M8.06208 13.6879C8.02314 13.6521 7.98071 13.6202 7.93542 13.5929C7.895 13.5615 7.84947 13.5374 7.80083 13.5216C7.75369 13.4975 7.70285 13.4815 7.65042 13.4741C7.49875 13.4421 7.34083 13.4587 7.19917 13.5216C7.10092 13.5572 7.0117 13.6139 6.93783 13.6878C6.86395 13.7617 6.80722 13.8509 6.77167 13.9491C6.72735 14.0431 6.70566 14.1461 6.70833 14.25C6.70707 14.3529 6.7259 14.4551 6.76375 14.5508C6.80965 14.6454 6.86825 14.7333 6.93792 14.812C7.01189 14.8854 7.09962 14.9435 7.19607 14.9829C7.29253 15.0223 7.39581 15.0422 7.5 15.0416C7.60385 15.0443 7.70688 15.0226 7.80083 14.9783C7.89677 14.9382 7.98513 14.882 8.06208 14.812C8.13546 14.7381 8.19351 14.6503 8.2329 14.5539C8.2723 14.4574 8.29227 14.3541 8.29167 14.25C8.29042 14.1465 8.2689 14.0443 8.22833 13.9491C8.19065 13.8519 8.13416 13.7632 8.06208 13.6879V13.6879ZM4.76875 10.4262C4.72833 10.3949 4.6828 10.3708 4.63417 10.355C4.58806 10.3253 4.53717 10.3039 4.48375 10.2916C4.38219 10.268 4.27656 10.268 4.175 10.2916L4.0325 10.3391L3.89 10.4104L3.77125 10.5054C3.62284 10.6611 3.54054 10.8682 3.54167 11.0833C3.54106 11.1875 3.56103 11.2908 3.60043 11.3872C3.63983 11.4837 3.69788 11.5714 3.77125 11.6454C3.8482 11.7153 3.93656 11.7715 4.0325 11.8116C4.15244 11.8609 4.28264 11.88 4.41167 11.8671C4.54069 11.8543 4.66459 11.81 4.77248 11.7381C4.88037 11.6661 4.96894 11.5688 5.0304 11.4546C5.09187 11.3405 5.12435 11.213 5.125 11.0833C5.12208 10.8737 5.04008 10.6729 4.89542 10.5212L4.76875 10.4262ZM4.89542 13.6879C4.82013 13.6158 4.73134 13.5593 4.63417 13.5216C4.49086 13.4552 4.33095 13.4331 4.175 13.4583L4.0325 13.5058C3.98205 13.5231 3.93413 13.5471 3.89 13.577C3.84853 13.6063 3.80887 13.638 3.77125 13.672C3.69918 13.7473 3.64268 13.8361 3.605 13.9333C3.56312 14.0281 3.54148 14.1305 3.54148 14.2341C3.54148 14.3377 3.56312 14.4402 3.605 14.535C3.64509 14.6309 3.70132 14.7193 3.77125 14.7962C3.84391 14.8724 3.93104 14.9334 4.02756 14.9756C4.12408 15.0177 4.22803 15.0402 4.33333 15.0416C4.43718 15.0443 4.54021 15.0226 4.63417 14.9783C4.7301 14.9382 4.81847 14.882 4.89542 14.812C4.96535 14.7351 5.02158 14.6467 5.06167 14.5508C5.10355 14.456 5.12518 14.3536 5.12518 14.25C5.12518 14.1464 5.10355 14.0439 5.06167 13.9491C5.02399 13.8519 4.96749 13.7632 4.89542 13.6879V13.6879ZM7.19917 10.355C7.10199 10.3926 7.01321 10.4491 6.93792 10.5212C6.79325 10.6729 6.71125 10.8737 6.70833 11.0833C6.70898 11.213 6.74146 11.3405 6.80293 11.4546C6.8644 11.5688 6.95297 11.6661 7.06085 11.7381C7.16874 11.81 7.29264 11.8543 7.42167 11.8671C7.55069 11.88 7.6809 11.8609 7.80083 11.8116C7.89677 11.7715 7.98513 11.7153 8.06208 11.6454C8.13546 11.5714 8.19351 11.4837 8.2329 11.3872C8.2723 11.2908 8.29227 11.1875 8.29167 11.0833C8.28875 10.8737 8.20675 10.6729 8.06208 10.5212C7.95076 10.4114 7.80939 10.3369 7.65581 10.3074C7.50224 10.2778 7.34334 10.2943 7.19917 10.355V10.355ZM11.2287 13.6879C11.1518 13.6179 11.0634 13.5617 10.9675 13.5216C10.8233 13.461 10.6644 13.4444 10.5109 13.474C10.3573 13.5036 10.2159 13.578 10.1046 13.6879C10.0325 13.7632 9.97601 13.8519 9.93833 13.9491C9.89645 14.0439 9.87482 14.1464 9.87482 14.25C9.87482 14.3536 9.89645 14.456 9.93833 14.5508C9.97842 14.6467 10.0347 14.7351 10.1046 14.812C10.1786 14.8854 10.2663 14.9435 10.3627 14.9829C10.4592 15.0223 10.5625 15.0422 10.6667 15.0416C10.7705 15.0443 10.8735 15.0226 10.9675 14.9783C11.0634 14.9382 11.1518 14.882 11.2287 14.812C11.3386 14.7007 11.413 14.5593 11.4426 14.4058C11.4722 14.2522 11.4556 14.0933 11.395 13.9491C11.3573 13.8519 11.3008 13.7632 11.2287 13.6879ZM10.6667 3.95829H4.33333C4.12337 3.95829 3.92201 4.0417 3.77354 4.19017C3.62507 4.33863 3.54167 4.54 3.54167 4.74996V7.91663C3.54167 8.12659 3.62507 8.32795 3.77354 8.47642C3.92201 8.62488 4.12337 8.70829 4.33333 8.70829H10.6667C10.8766 8.70829 11.078 8.62488 11.2265 8.47642C11.3749 8.32795 11.4583 8.12659 11.4583 7.91663V4.74996C11.4583 4.54 11.3749 4.33863 11.2265 4.19017C11.078 4.0417 10.8766 3.95829 10.6667 3.95829ZM9.875 7.12496H5.125V5.54163H9.875V7.12496ZM12.25 0.791626H2.75C2.12011 0.791626 1.51602 1.04185 1.07062 1.48725C0.625223 1.93265 0.375 2.53674 0.375 3.16663V15.8333C0.375 16.4632 0.625223 17.0673 1.07062 17.5127C1.51602 17.9581 2.12011 18.2083 2.75 18.2083H12.25C12.8799 18.2083 13.484 17.9581 13.9294 17.5127C14.3748 17.0673 14.625 16.4632 14.625 15.8333V3.16663C14.625 2.53674 14.3748 1.93265 13.9294 1.48725C13.484 1.04185 12.8799 0.791626 12.25 0.791626V0.791626ZM13.0417 15.8333C13.0417 16.0433 12.9583 16.2446 12.8098 16.3931C12.6613 16.5416 12.46 16.625 12.25 16.625H2.75C2.54004 16.625 2.33867 16.5416 2.19021 16.3931C2.04174 16.2446 1.95833 16.0433 1.95833 15.8333V3.16663C1.95833 2.95666 2.04174 2.7553 2.19021 2.60683C2.33867 2.45837 2.54004 2.37496 2.75 2.37496H12.25C12.46 2.37496 12.6613 2.45837 12.8098 2.60683C12.9583 2.7553 13.0417 2.95666 13.0417 3.16663V15.8333ZM11.1021 10.4262C11.0617 10.3949 11.0161 10.3708 10.9675 10.355C10.9204 10.3309 10.8695 10.3148 10.8171 10.3075C10.7155 10.2838 10.6099 10.2838 10.5083 10.3075L10.3658 10.355L10.2233 10.4262L10.1046 10.5212C9.95992 10.6729 9.87792 10.8737 9.875 11.0833C9.87565 11.213 9.90813 11.3405 9.9696 11.4546C10.0311 11.5688 10.1196 11.6661 10.2275 11.7381C10.3354 11.81 10.4593 11.8543 10.5883 11.8671C10.7174 11.88 10.8476 11.8609 10.9675 11.8116C11.0634 11.7715 11.1518 11.7153 11.2287 11.6454C11.3021 11.5714 11.3602 11.4837 11.3996 11.3872C11.439 11.2908 11.4589 11.1875 11.4583 11.0833C11.4554 10.8737 11.3734 10.6729 11.2287 10.5212L11.1021 10.4262Z" fill="white"/>
</svg>
