<svg width="20" height="20" viewBox="0 0 20 20" fill="none" xmlns="http://www.w3.org/2000/svg">
<path d="M7.25803 8.06448C7.04415 8.06448 6.83903 8.14944 6.68779 8.30068C6.53655 8.45192 6.45158 8.65704 6.45158 8.87093V10.4838C6.45158 10.6977 6.53655 10.9028 6.68779 11.0541C6.83903 11.2053 7.04415 11.2903 7.25803 11.2903C7.47192 11.2903 7.67704 11.2053 7.82828 11.0541C7.97952 10.9028 8.06448 10.6977 8.06448 10.4838V8.87093C8.06448 8.65704 7.97952 8.45192 7.82828 8.30068C7.67704 8.14944 7.47192 8.06448 7.25803 8.06448ZM16.9354 8.87093C17.1493 8.87093 17.3544 8.78596 17.5057 8.63472C17.6569 8.48348 17.7419 8.27836 17.7419 8.06448V4.83868C17.7419 4.62479 17.6569 4.41967 17.5057 4.26843C17.3544 4.11719 17.1493 4.03223 16.9354 4.03223L2.41933 4.03223C2.20545 4.03223 2.00033 4.11719 1.84909 4.26843C1.69785 4.41967 1.61288 4.62479 1.61288 4.83868L1.61288 8.06448C1.61288 8.27836 1.69785 8.48348 1.84909 8.63472C2.00033 8.78596 2.20545 8.87093 2.41933 8.87093C2.63322 8.87093 2.83834 8.95589 2.98958 9.10713C3.14082 9.25837 3.22578 9.46349 3.22578 9.67738C3.22578 9.89126 3.14082 10.0964 2.98958 10.2476C2.83834 10.3989 2.63322 10.4838 2.41933 10.4838C2.20545 10.4838 2.00033 10.5688 1.84909 10.72C1.69785 10.8713 1.61288 11.0764 1.61288 11.2903L1.61288 14.5161C1.61288 14.73 1.69785 14.9351 1.84909 15.0863C2.00033 15.2376 2.20545 15.3225 2.41933 15.3225H16.9354C17.1493 15.3225 17.3544 15.2376 17.5057 15.0863C17.6569 14.9351 17.7419 14.73 17.7419 14.5161V11.2903C17.7419 11.0764 17.6569 10.8713 17.5057 10.72C17.3544 10.5688 17.1493 10.4838 16.9354 10.4838C16.7215 10.4838 16.5164 10.3989 16.3652 10.2476C16.2139 10.0964 16.129 9.89126 16.129 9.67738C16.129 9.46349 16.2139 9.25837 16.3652 9.10713C16.5164 8.95589 16.7215 8.87093 16.9354 8.87093ZM16.129 7.40319C15.6619 7.57271 15.2584 7.88192 14.9732 8.2888C14.688 8.69569 14.5351 9.18051 14.5351 9.67738C14.5351 10.1742 14.688 10.6591 14.9732 11.0659C15.2584 11.4728 15.6619 11.782 16.129 11.9516V13.7096H8.06448C8.06448 13.4957 7.97952 13.2906 7.82828 13.1394C7.67704 12.9881 7.47192 12.9032 7.25803 12.9032C7.04415 12.9032 6.83903 12.9881 6.68779 13.1394C6.53655 13.2906 6.45158 13.4957 6.45158 13.7096H3.22578V11.9516C3.69284 11.782 4.09638 11.4728 4.38155 11.0659C4.66673 10.6591 4.81971 10.1742 4.81971 9.67738C4.81971 9.18051 4.66673 8.69569 4.38155 8.2888C4.09638 7.88192 3.69284 7.57271 3.22578 7.40319V5.64513H6.45158C6.45158 5.85901 6.53655 6.06413 6.68779 6.21537C6.83903 6.36661 7.04415 6.45158 7.25803 6.45158C7.47192 6.45158 7.67704 6.36661 7.82828 6.21537C7.97952 6.06413 8.06448 5.85901 8.06448 5.64513L16.129 5.64513V7.40319Z" fill="#626262"/>
</svg>
