<svg width="17" height="17" viewBox="0 0 17 17" fill="none" xmlns="http://www.w3.org/2000/svg">
<path d="M13.4525 14.8764H12.7441V13.6956C12.7419 13.2902 12.6701 12.8883 12.5319 12.5072C12.5242 12.4864 12.5161 12.4671 12.5065 12.4473C12.3918 12.1345 12.2333 11.8396 12.0358 11.5713L11.0442 10.2487C10.7691 9.88026 10.62 9.43296 10.6191 8.97314V8.25786C10.6207 7.69468 10.8443 7.15484 11.2413 6.75542L11.7069 6.28988C12.2478 5.74606 12.5952 5.03974 12.6959 4.27936C12.6963 4.26951 12.7016 4.26129 12.7016 4.25135L12.6996 4.24162C12.7242 4.0908 12.7391 3.93855 12.7441 3.78582V2.12638H13.4525C13.6403 2.12638 13.8205 2.05176 13.9533 1.91892C14.0862 1.78608 14.1608 1.60591 14.1608 1.41805C14.1608 1.23019 14.0862 1.05002 13.9533 0.917183C13.8205 0.784345 13.6403 0.709717 13.4525 0.709717H3.53579C3.34793 0.709717 3.16776 0.784345 3.03493 0.917183C2.90209 1.05002 2.82746 1.23019 2.82746 1.41805C2.82746 1.60591 2.90209 1.78608 3.03493 1.91892C3.16776 2.05176 3.34793 2.12638 3.53579 2.12638H4.24413V3.78582C4.24916 3.93855 4.26403 4.0908 4.28866 4.24162L4.28666 4.25138C4.28666 4.2613 4.29193 4.26955 4.29233 4.2794C4.39302 5.03977 4.74049 5.74609 5.28138 6.28992L5.74691 6.75545C6.14393 7.15487 6.36749 7.69469 6.36912 8.25786V8.97313C6.3682 9.43289 6.21928 9.88014 5.9444 10.2487L4.95211 11.5713C4.75465 11.8397 4.59622 12.1347 4.48151 12.4476C4.47209 12.4672 4.464 12.4863 4.45635 12.5069C4.31812 12.888 4.24634 13.2901 4.24412 13.6956V14.8764H3.53579C3.34793 14.8764 3.16776 14.951 3.03492 15.0838C2.90208 15.2167 2.82745 15.3969 2.82745 15.5847C2.82745 15.7726 2.90208 15.9527 3.03492 16.0856C3.16776 16.2184 3.34793 16.293 3.53579 16.293H13.4525C13.6403 16.293 13.8205 16.2184 13.9533 16.0856C14.0862 15.9527 14.1608 15.7726 14.1608 15.5847C14.1608 15.3969 14.0862 15.2167 13.9533 15.0838C13.8205 14.951 13.6403 14.8764 13.4525 14.8764ZM5.66079 3.54305V2.12638H11.3275V3.54305H5.66079ZM6.283 5.28829C6.18319 5.18802 6.09375 5.07794 6.01604 4.95972H10.9722C10.8945 5.07794 10.805 5.18802 10.7052 5.28829L10.2397 5.75383C9.68718 6.30311 9.33289 7.02045 9.23254 7.79305H7.75567C7.65535 7.02042 7.30106 6.30305 6.74853 5.75376L6.283 5.28829ZM7.0778 11.0981C7.48766 10.5489 7.73068 9.89335 7.77783 9.20972H9.21041C9.25752 9.89342 9.50068 10.5491 9.91079 11.0981L10.6192 12.043H6.36886L7.0778 11.0981ZM11.3275 14.8764H5.66079V13.6956C5.66276 13.6167 5.6692 13.5379 5.68007 13.4597H11.3082C11.319 13.5379 11.3255 13.6167 11.3275 13.6956V14.8764Z" fill="#626262"/>
</svg>
