<svg width="21" height="21" viewBox="0 0 21 21" fill="none" xmlns="http://www.w3.org/2000/svg">
<path d="M7.875 8.75H8.75C8.98206 8.75 9.20462 8.65781 9.36872 8.49372C9.53281 8.32962 9.625 8.10707 9.625 7.875C9.625 7.64294 9.53281 7.42038 9.36872 7.25628C9.20462 7.09219 8.98206 7 8.75 7H7.875C7.64294 7 7.42038 7.09219 7.25628 7.25628C7.09219 7.42038 7 7.64294 7 7.875C7 8.10707 7.09219 8.32962 7.25628 8.49372C7.42038 8.65781 7.64294 8.75 7.875 8.75V8.75ZM7.875 10.5C7.64294 10.5 7.42038 10.5922 7.25628 10.7563C7.09219 10.9204 7 11.1429 7 11.375C7 11.6071 7.09219 11.8296 7.25628 11.9937C7.42038 12.1578 7.64294 12.25 7.875 12.25H13.125C13.3571 12.25 13.5796 12.1578 13.7437 11.9937C13.9078 11.8296 14 11.6071 14 11.375C14 11.1429 13.9078 10.9204 13.7437 10.7563C13.5796 10.5922 13.3571 10.5 13.125 10.5H7.875ZM17.5 7.8225C17.4909 7.74212 17.4733 7.66293 17.4475 7.58625V7.5075C17.4054 7.41753 17.3493 7.33483 17.2812 7.2625V7.2625L12.0312 2.0125C11.9589 1.94444 11.8762 1.88832 11.7862 1.84625C11.7601 1.84254 11.7336 1.84254 11.7075 1.84625C11.6186 1.79527 11.5204 1.76255 11.4187 1.75H6.125C5.42881 1.75 4.76113 2.02656 4.26884 2.51884C3.77656 3.01113 3.5 3.67881 3.5 4.375V16.625C3.5 17.3212 3.77656 17.9889 4.26884 18.4812C4.76113 18.9734 5.42881 19.25 6.125 19.25H14.875C15.5712 19.25 16.2389 18.9734 16.7312 18.4812C17.2234 17.9889 17.5 17.3212 17.5 16.625V7.875C17.5 7.875 17.5 7.875 17.5 7.8225ZM12.25 4.73375L14.5162 7H13.125C12.8929 7 12.6704 6.90781 12.5063 6.74372C12.3422 6.57962 12.25 6.35707 12.25 6.125V4.73375ZM15.75 16.625C15.75 16.8571 15.6578 17.0796 15.4937 17.2437C15.3296 17.4078 15.1071 17.5 14.875 17.5H6.125C5.89294 17.5 5.67038 17.4078 5.50628 17.2437C5.34219 17.0796 5.25 16.8571 5.25 16.625V4.375C5.25 4.14294 5.34219 3.92038 5.50628 3.75628C5.67038 3.59219 5.89294 3.5 6.125 3.5H10.5V6.125C10.5 6.82119 10.7766 7.48887 11.2688 7.98116C11.7611 8.47344 12.4288 8.75 13.125 8.75H15.75V16.625ZM13.125 14H7.875C7.64294 14 7.42038 14.0922 7.25628 14.2563C7.09219 14.4204 7 14.6429 7 14.875C7 15.1071 7.09219 15.3296 7.25628 15.4937C7.42038 15.6578 7.64294 15.75 7.875 15.75H13.125C13.3571 15.75 13.5796 15.6578 13.7437 15.4937C13.9078 15.3296 14 15.1071 14 14.875C14 14.6429 13.9078 14.4204 13.7437 14.2563C13.5796 14.0922 13.3571 14 13.125 14Z" fill="#626262"/>
</svg>
