<svg width="18" height="18" viewBox="0 0 18 18" fill="none" xmlns="http://www.w3.org/2000/svg">
<path d="M9.75001 12H5.25001C5.05109 12 4.86033 12.079 4.71968 12.2197C4.57902 12.3603 4.50001 12.5511 4.50001 12.75C4.50001 12.9489 4.57902 13.1397 4.71968 13.2803C4.86033 13.421 5.05109 13.5 5.25001 13.5H9.75001C9.94892 13.5 10.1397 13.421 10.2803 13.2803C10.421 13.1397 10.5 12.9489 10.5 12.75C10.5 12.5511 10.421 12.3603 10.2803 12.2197C10.1397 12.079 9.94892 12 9.75001 12ZM6.75001 7.49999H8.25001C8.44892 7.49999 8.63968 7.42097 8.78034 7.28032C8.92099 7.13967 9.00001 6.9489 9.00001 6.74999C9.00001 6.55108 8.92099 6.36031 8.78034 6.21966C8.63968 6.07901 8.44892 5.99999 8.25001 5.99999H6.75001C6.55109 5.99999 6.36033 6.07901 6.21968 6.21966C6.07902 6.36031 6.00001 6.55108 6.00001 6.74999C6.00001 6.9489 6.07902 7.13967 6.21968 7.28032C6.36033 7.42097 6.55109 7.49999 6.75001 7.49999V7.49999ZM15.75 8.99999H13.5V2.24999C13.5005 2.11783 13.4661 1.98788 13.4003 1.8733C13.3344 1.75872 13.2395 1.66357 13.125 1.59749C13.011 1.53166 12.8817 1.49701 12.75 1.49701C12.6184 1.49701 12.489 1.53166 12.375 1.59749L10.125 2.88749L7.87501 1.59749C7.76099 1.53166 7.63166 1.49701 7.50001 1.49701C7.36835 1.49701 7.23902 1.53166 7.12501 1.59749L4.87501 2.88749L2.62501 1.59749C2.51099 1.53166 2.38166 1.49701 2.25001 1.49701C2.11835 1.49701 1.98902 1.53166 1.87501 1.59749C1.76055 1.66357 1.66559 1.75872 1.59974 1.8733C1.53389 1.98788 1.49948 2.11783 1.50001 2.24999V14.25C1.50001 14.8467 1.73706 15.419 2.15902 15.841C2.58097 16.2629 3.15327 16.5 3.75001 16.5H14.25C14.8467 16.5 15.419 16.2629 15.841 15.841C16.263 15.419 16.5 14.8467 16.5 14.25V9.74999C16.5 9.55108 16.421 9.36031 16.2803 9.21966C16.1397 9.07901 15.9489 8.99999 15.75 8.99999ZM3.75001 15C3.55109 15 3.36033 14.921 3.21968 14.7803C3.07902 14.6397 3.00001 14.4489 3.00001 14.25V3.54749L4.50001 4.40249C4.61576 4.46295 4.74441 4.49452 4.87501 4.49452C5.0056 4.49452 5.13425 4.46295 5.25001 4.40249L7.50001 3.11249L9.75001 4.40249C9.86576 4.46295 9.99441 4.49452 10.125 4.49452C10.2556 4.49452 10.3843 4.46295 10.5 4.40249L12 3.54749V14.25C12.002 14.5058 12.0477 14.7595 12.135 15H3.75001ZM15 14.25C15 14.4489 14.921 14.6397 14.7803 14.7803C14.6397 14.921 14.4489 15 14.25 15C14.0511 15 13.8603 14.921 13.7197 14.7803C13.579 14.6397 13.5 14.4489 13.5 14.25V10.5H15V14.25ZM9.75001 8.99999H5.25001C5.05109 8.99999 4.86033 9.07901 4.71968 9.21966C4.57902 9.36031 4.50001 9.55108 4.50001 9.74999C4.50001 9.9489 4.57902 10.1397 4.71968 10.2803C4.86033 10.421 5.05109 10.5 5.25001 10.5H9.75001C9.94892 10.5 10.1397 10.421 10.2803 10.2803C10.421 10.1397 10.5 9.9489 10.5 9.74999C10.5 9.55108 10.421 9.36031 10.2803 9.21966C10.1397 9.07901 9.94892 8.99999 9.75001 8.99999Z" fill="#626262"/>
</svg>
