<svg width="22" height="22" viewBox="0 0 22 22" fill="none" xmlns="http://www.w3.org/2000/svg">
<path d="M18.7825 6.89332C18.7773 6.86915 18.7773 6.84415 18.7825 6.81998C18.778 6.79883 18.778 6.77697 18.7825 6.75582V6.67332L18.7275 6.53582C18.7052 6.4983 18.6774 6.46431 18.645 6.43498L18.5625 6.36165H18.5167L14.905 4.07915L11.495 1.97082C11.4161 1.90823 11.3258 1.86154 11.2292 1.83332H11.1558C11.0739 1.81964 10.9903 1.81964 10.9083 1.83332H10.8167C10.7102 1.85687 10.6081 1.89708 10.5142 1.95248L3.66667 6.21498L3.58417 6.27915L3.50167 6.35248L3.41 6.41665L3.36417 6.47165L3.30917 6.60915V6.69165V6.74665C3.30026 6.80744 3.30026 6.8692 3.30917 6.92998V14.9325C3.30886 15.0883 3.34825 15.2416 3.42363 15.3779C3.49902 15.5142 3.6079 15.6291 3.74 15.7117L10.615 19.965L10.7525 20.02H10.8258C10.9809 20.0692 11.1474 20.0692 11.3025 20.02H11.3758L11.5133 19.965L18.3333 15.7758C18.4654 15.6933 18.5743 15.5784 18.6497 15.4421C18.7251 15.3057 18.7645 15.1524 18.7642 14.9967V6.99415C18.7642 6.99415 18.7825 6.92998 18.7825 6.89332ZM11 3.82248L12.6317 4.83082L7.5075 8.00248L5.86667 6.99415L11 3.82248ZM10.0833 17.5725L5.04167 14.4925V8.63498L10.0833 11.7517V17.5725ZM11 10.1383L9.24917 9.08415L14.3733 5.90332L16.1333 6.99415L11 10.1383ZM16.9583 14.465L11.9167 17.6V11.7517L16.9583 8.63498V14.465Z" fill="#626262"/>
</svg>
