<svg width="16" height="16" viewBox="0 0 16 16" fill="none" xmlns="http://www.w3.org/2000/svg">
<path d="M3.99999 8.66662H1.33332C1.15651 8.66662 0.986943 8.73686 0.861919 8.86189C0.736894 8.98691 0.666656 9.15648 0.666656 9.33329V14.6666C0.666656 14.8434 0.736894 15.013 0.861919 15.138C0.986943 15.2631 1.15651 15.3333 1.33332 15.3333H3.99999C4.1768 15.3333 4.34637 15.2631 4.47139 15.138C4.59642 15.013 4.66666 14.8434 4.66666 14.6666V9.33329C4.66666 9.15648 4.59642 8.98691 4.47139 8.86189C4.34637 8.73686 4.1768 8.66662 3.99999 8.66662ZM3.33332 14H1.99999V9.99996H3.33332V14ZM14.6667 5.99996H12C11.8232 5.99996 11.6536 6.0702 11.5286 6.19522C11.4036 6.32024 11.3333 6.48981 11.3333 6.66663V14.6666C11.3333 14.8434 11.4036 15.013 11.5286 15.138C11.6536 15.2631 11.8232 15.3333 12 15.3333H14.6667C14.8435 15.3333 15.013 15.2631 15.1381 15.138C15.2631 15.013 15.3333 14.8434 15.3333 14.6666V6.66663C15.3333 6.48981 15.2631 6.32024 15.1381 6.19522C15.013 6.0702 14.8435 5.99996 14.6667 5.99996ZM14 14H12.6667V7.33329H14V14ZM9.33332 0.666626H6.66666C6.48985 0.666626 6.32028 0.736864 6.19525 0.861888C6.07023 0.986912 5.99999 1.15648 5.99999 1.33329V14.6666C5.99999 14.8434 6.07023 15.013 6.19525 15.138C6.32028 15.2631 6.48985 15.3333 6.66666 15.3333H9.33332C9.51013 15.3333 9.6797 15.2631 9.80473 15.138C9.92975 15.013 9.99999 14.8434 9.99999 14.6666V1.33329C9.99999 1.15648 9.92975 0.986912 9.80473 0.861888C9.6797 0.736864 9.51013 0.666626 9.33332 0.666626ZM8.66666 14H7.33332V1.99996H8.66666V14Z" fill="#626262"/>
</svg>
