<svg width="19" height="19" viewBox="0 0 19 19" fill="none" xmlns="http://www.w3.org/2000/svg">
<path d="M10.0621 13.6879C10.0231 13.6521 9.98071 13.6202 9.93542 13.5929C9.895 13.5615 9.84947 13.5374 9.80083 13.5216C9.75369 13.4975 9.70285 13.4815 9.65042 13.4741C9.49875 13.4421 9.34083 13.4587 9.19917 13.5216C9.10092 13.5572 9.0117 13.6139 8.93783 13.6878C8.86395 13.7617 8.80722 13.8509 8.77167 13.9491C8.72735 14.0431 8.70566 14.1461 8.70833 14.25C8.70707 14.3529 8.7259 14.4551 8.76375 14.5508C8.80965 14.6454 8.86825 14.7333 8.93792 14.812C9.01189 14.8854 9.09962 14.9435 9.19607 14.9829C9.29253 15.0223 9.39581 15.0422 9.5 15.0416C9.60385 15.0443 9.70688 15.0226 9.80083 14.9783C9.89677 14.9382 9.98513 14.882 10.0621 14.812C10.1355 14.7381 10.1935 14.6503 10.2329 14.5539C10.2723 14.4574 10.2923 14.3541 10.2917 14.25C10.2904 14.1465 10.2689 14.0443 10.2283 13.9491C10.1907 13.8519 10.1342 13.7632 10.0621 13.6879V13.6879ZM6.76875 10.4262C6.72833 10.3949 6.6828 10.3708 6.63417 10.355C6.58806 10.3253 6.53717 10.3039 6.48375 10.2916C6.38219 10.268 6.27656 10.268 6.175 10.2916L6.0325 10.3391L5.89 10.4104L5.77125 10.5054C5.62284 10.6611 5.54054 10.8682 5.54167 11.0833C5.54106 11.1875 5.56103 11.2908 5.60043 11.3872C5.63983 11.4837 5.69788 11.5714 5.77125 11.6454C5.8482 11.7153 5.93656 11.7715 6.0325 11.8116C6.15244 11.8609 6.28264 11.88 6.41167 11.8671C6.54069 11.8543 6.66459 11.81 6.77248 11.7381C6.88037 11.6661 6.96894 11.5688 7.0304 11.4546C7.09187 11.3405 7.12435 11.213 7.125 11.0833C7.12208 10.8737 7.04008 10.6729 6.89542 10.5212L6.76875 10.4262ZM6.89542 13.6879C6.82013 13.6158 6.73134 13.5593 6.63417 13.5216C6.49086 13.4552 6.33095 13.4331 6.175 13.4583L6.0325 13.5058C5.98205 13.5231 5.93413 13.5471 5.89 13.577C5.84853 13.6063 5.80887 13.638 5.77125 13.672C5.69918 13.7473 5.64268 13.8361 5.605 13.9333C5.56312 14.0281 5.54148 14.1305 5.54148 14.2341C5.54148 14.3377 5.56312 14.4402 5.605 14.535C5.64509 14.6309 5.70132 14.7193 5.77125 14.7962C5.84391 14.8724 5.93104 14.9334 6.02756 14.9756C6.12408 15.0177 6.22803 15.0402 6.33333 15.0416C6.43718 15.0443 6.54021 15.0226 6.63417 14.9783C6.7301 14.9382 6.81847 14.882 6.89542 14.812C6.96535 14.7351 7.02158 14.6467 7.06167 14.5508C7.10355 14.456 7.12518 14.3536 7.12518 14.25C7.12518 14.1464 7.10355 14.0439 7.06167 13.9491C7.02399 13.8519 6.96749 13.7632 6.89542 13.6879V13.6879ZM9.19917 10.355C9.10199 10.3926 9.01321 10.4491 8.93792 10.5212C8.79325 10.6729 8.71125 10.8737 8.70833 11.0833C8.70898 11.213 8.74146 11.3405 8.80293 11.4546C8.8644 11.5688 8.95297 11.6661 9.06085 11.7381C9.16874 11.81 9.29264 11.8543 9.42167 11.8671C9.55069 11.88 9.6809 11.8609 9.80083 11.8116C9.89677 11.7715 9.98513 11.7153 10.0621 11.6454C10.1355 11.5714 10.1935 11.4837 10.2329 11.3872C10.2723 11.2908 10.2923 11.1875 10.2917 11.0833C10.2888 10.8737 10.2067 10.6729 10.0621 10.5212C9.95076 10.4114 9.80939 10.3369 9.65581 10.3074C9.50224 10.2778 9.34334 10.2943 9.19917 10.355V10.355ZM13.2287 13.6879C13.1518 13.6179 13.0634 13.5617 12.9675 13.5216C12.8233 13.461 12.6644 13.4444 12.5109 13.474C12.3573 13.5036 12.2159 13.578 12.1046 13.6879C12.0325 13.7632 11.976 13.8519 11.9383 13.9491C11.8965 14.0439 11.8748 14.1464 11.8748 14.25C11.8748 14.3536 11.8965 14.456 11.9383 14.5508C11.9784 14.6467 12.0347 14.7351 12.1046 14.812C12.1786 14.8854 12.2663 14.9435 12.3627 14.9829C12.4592 15.0223 12.5625 15.0422 12.6667 15.0416C12.7705 15.0443 12.8735 15.0226 12.9675 14.9783C13.0634 14.9382 13.1518 14.882 13.2287 14.812C13.3386 14.7007 13.413 14.5593 13.4426 14.4058C13.4722 14.2522 13.4556 14.0933 13.395 13.9491C13.3573 13.8519 13.3008 13.7632 13.2287 13.6879ZM12.6667 3.95829H6.33333C6.12337 3.95829 5.92201 4.0417 5.77354 4.19017C5.62507 4.33863 5.54167 4.54 5.54167 4.74996V7.91663C5.54167 8.12659 5.62507 8.32795 5.77354 8.47642C5.92201 8.62488 6.12337 8.70829 6.33333 8.70829H12.6667C12.8766 8.70829 13.078 8.62488 13.2265 8.47642C13.3749 8.32795 13.4583 8.12659 13.4583 7.91663V4.74996C13.4583 4.54 13.3749 4.33863 13.2265 4.19017C13.078 4.0417 12.8766 3.95829 12.6667 3.95829ZM11.875 7.12496H7.125V5.54163H11.875V7.12496ZM14.25 0.791626H4.75C4.12011 0.791626 3.51602 1.04185 3.07062 1.48725C2.62522 1.93265 2.375 2.53674 2.375 3.16663V15.8333C2.375 16.4632 2.62522 17.0673 3.07062 17.5127C3.51602 17.9581 4.12011 18.2083 4.75 18.2083H14.25C14.8799 18.2083 15.484 17.9581 15.9294 17.5127C16.3748 17.0673 16.625 16.4632 16.625 15.8333V3.16663C16.625 2.53674 16.3748 1.93265 15.9294 1.48725C15.484 1.04185 14.8799 0.791626 14.25 0.791626V0.791626ZM15.0417 15.8333C15.0417 16.0433 14.9583 16.2446 14.8098 16.3931C14.6613 16.5416 14.46 16.625 14.25 16.625H4.75C4.54004 16.625 4.33867 16.5416 4.19021 16.3931C4.04174 16.2446 3.95833 16.0433 3.95833 15.8333V3.16663C3.95833 2.95666 4.04174 2.7553 4.19021 2.60683C4.33867 2.45837 4.54004 2.37496 4.75 2.37496H14.25C14.46 2.37496 14.6613 2.45837 14.8098 2.60683C14.9583 2.7553 15.0417 2.95666 15.0417 3.16663V15.8333ZM13.1021 10.4262C13.0617 10.3949 13.0161 10.3708 12.9675 10.355C12.9204 10.3309 12.8695 10.3148 12.8171 10.3075C12.7155 10.2838 12.6099 10.2838 12.5083 10.3075L12.3658 10.355L12.2233 10.4262L12.1046 10.5212C11.9599 10.6729 11.8779 10.8737 11.875 11.0833C11.8756 11.213 11.9081 11.3405 11.9696 11.4546C12.0311 11.5688 12.1196 11.6661 12.2275 11.7381C12.3354 11.81 12.4593 11.8543 12.5883 11.8671C12.7174 11.88 12.8476 11.8609 12.9675 11.8116C13.0634 11.7715 13.1518 11.7153 13.2287 11.6454C13.3021 11.5714 13.3602 11.4837 13.3996 11.3872C13.439 11.2908 13.4589 11.1875 13.4583 11.0833C13.4554 10.8737 13.3734 10.6729 13.2287 10.5212L13.1021 10.4262Z" fill="#626262"/>
</svg>
