<svg width="19" height="19" viewBox="0 0 19 19" fill="none" xmlns="http://www.w3.org/2000/svg">
<path d="M1.97916 7.01414L9.10415 11.1308C9.2245 11.2003 9.36102 11.2369 9.49999 11.2369C9.63895 11.2369 9.77547 11.2003 9.89582 11.1308L17.0208 7.01414C17.1405 6.94507 17.24 6.84588 17.3094 6.72644C17.3788 6.607 17.4158 6.47147 17.4167 6.33331C17.4172 6.19381 17.3809 6.05664 17.3114 5.93569C17.2419 5.81474 17.1416 5.71431 17.0208 5.64456L9.89582 1.53581C9.77547 1.46633 9.63895 1.42975 9.49999 1.42975C9.36102 1.42975 9.2245 1.46633 9.10415 1.53581L1.97916 5.64456C1.85834 5.71431 1.75811 5.81474 1.6886 5.93569C1.61909 6.05664 1.58277 6.19381 1.58332 6.33331C1.58416 6.47147 1.62113 6.607 1.69057 6.72644C1.76001 6.84588 1.8595 6.94507 1.97916 7.01414V7.01414ZM9.49999 3.16664L15.0417 6.33331L9.49999 9.49998L3.95832 6.33331L9.49999 3.16664ZM16.2292 8.84289L9.49999 12.6666L2.77082 8.81123C2.68047 8.75888 2.58065 8.72493 2.47711 8.71133C2.37358 8.69773 2.26838 8.70474 2.16757 8.73196C2.06676 8.75919 1.97233 8.80609 1.88972 8.86997C1.80711 8.93384 1.73796 9.01343 1.68624 9.10414C1.58303 9.28592 1.5559 9.50115 1.61078 9.70285C1.66565 9.90456 1.79808 10.0764 1.97916 10.1808L9.10415 14.2975C9.2245 14.367 9.36102 14.4035 9.49999 14.4035C9.63895 14.4035 9.77547 14.367 9.89582 14.2975L17.0208 10.1808C17.2019 10.0764 17.3343 9.90456 17.3892 9.70285C17.4441 9.50115 17.4169 9.28592 17.3137 9.10414C17.262 9.01343 17.1929 8.93384 17.1103 8.86997C17.0276 8.80609 16.9332 8.75919 16.8324 8.73196C16.7316 8.70474 16.6264 8.69773 16.5229 8.71133C16.4193 8.72493 16.3195 8.75888 16.2292 8.81123V8.84289ZM16.2292 12.0096L9.49999 15.8333L2.77082 11.9779C2.68047 11.9255 2.58065 11.8916 2.47711 11.878C2.37358 11.8644 2.26838 11.8714 2.16757 11.8986C2.06676 11.9259 1.97233 11.9728 1.88972 12.0366C1.80711 12.1005 1.73796 12.1801 1.68624 12.2708C1.58303 12.4526 1.5559 12.6678 1.61078 12.8695C1.66565 13.0712 1.79808 13.243 1.97916 13.3475L9.10415 17.4641C9.2245 17.5336 9.36102 17.5702 9.49999 17.5702C9.63895 17.5702 9.77547 17.5336 9.89582 17.4641L17.0208 13.3475C17.2019 13.243 17.3343 13.0712 17.3892 12.8695C17.4441 12.6678 17.4169 12.4526 17.3137 12.2708C17.262 12.1801 17.1929 12.1005 17.1103 12.0366C17.0276 11.9728 16.9332 11.9259 16.8324 11.8986C16.7316 11.8714 16.6264 11.8644 16.5229 11.878C16.4193 11.8916 16.3195 11.9255 16.2292 11.9779V12.0096Z" fill="#626262"/>
</svg>
