<svg width="29" height="29" viewBox="0 0 29 29" fill="none" xmlns="http://www.w3.org/2000/svg">
<path d="M26.4626 22.6602L26.1887 22.4186C25.4117 21.7263 24.7316 20.9324 24.1668 20.0583C23.5499 18.852 23.1801 17.5347 23.0793 16.1836V12.2041C23.0846 10.082 22.3148 8.03092 20.9145 6.43632C19.5142 4.84172 17.5799 3.81334 15.4748 3.54439V2.50523C15.4748 2.22001 15.3615 1.94647 15.1598 1.74479C14.9581 1.54311 14.6846 1.42981 14.3994 1.42981C14.1142 1.42981 13.8406 1.54311 13.639 1.74479C13.4373 1.94647 13.324 2.22001 13.324 2.50523V3.5605C11.2378 3.84883 9.32679 4.88343 7.9449 6.47267C6.56302 8.06192 5.8039 10.0981 5.80814 12.2041V16.1836C5.70725 17.5347 5.33752 18.852 4.72064 20.0583C4.16552 20.9302 3.49635 21.724 2.73092 22.4186L2.45703 22.6602V24.9319H26.4626V22.6602Z" fill="#47ADDD"/>
<path d="M12.3411 25.7778C12.4117 26.2885 12.6647 26.7563 13.0534 27.0949C13.4421 27.4335 13.9402 27.62 14.4556 27.62C14.9711 27.62 15.4692 27.4335 15.8579 27.0949C16.2466 26.7563 16.4996 26.2885 16.5702 25.7778H12.3411Z" fill="#47ADDD"/>
</svg>
