<svg width="29" height="29" viewBox="0 0 29 29" fill="none" xmlns="http://www.w3.org/2000/svg">
<path d="M26.4625 22.6602L26.1886 22.4186C25.4116 21.7263 24.7315 20.9324 24.1667 20.0583C23.5498 18.852 23.1801 17.5347 23.0792 16.1836V12.2041C23.0845 10.082 22.3147 8.03092 20.9145 6.43632C19.5142 4.84172 17.5798 3.81334 15.4748 3.54439V2.50523C15.4748 2.22001 15.3614 1.94647 15.1598 1.74479C14.9581 1.54311 14.6846 1.42981 14.3993 1.42981C14.1141 1.42981 13.8406 1.54311 13.6389 1.74479C13.4372 1.94647 13.3239 2.22001 13.3239 2.50523V3.5605C11.2377 3.84883 9.32673 4.88343 7.94484 6.47267C6.56296 8.06192 5.80384 10.0981 5.80808 12.2041V16.1836C5.70719 17.5347 5.33746 18.852 4.72058 20.0583C4.16546 20.9302 3.49629 21.724 2.73086 22.4186L2.45697 22.6602V24.9319H26.4625V22.6602Z" fill="#828596"/>
<path d="M12.3411 25.7778C12.4118 26.2885 12.6648 26.7563 13.0535 27.0949C13.4421 27.4335 13.9402 27.62 14.4557 27.62C14.9712 27.62 15.4693 27.4335 15.858 27.0949C16.2466 26.7563 16.4997 26.2885 16.5703 25.7778H12.3411Z" fill="#828596"/>
</svg>
