<svg width="20" height="20" viewBox="0 0 20 20" fill="none" xmlns="http://www.w3.org/2000/svg">
<path d="M10.8333 2.91663C10.8333 2.58511 10.7016 2.26716 10.4672 2.03274C10.2328 1.79832 9.91485 1.66663 9.58333 1.66663C9.25181 1.66663 8.93387 1.79832 8.69945 2.03274C8.46503 2.26716 8.33333 2.58511 8.33333 2.91663V8.33329H2.91666C2.58514 8.33329 2.2672 8.46499 2.03278 8.69941C1.79836 8.93383 1.66666 9.25177 1.66666 9.58329C1.66666 9.91481 1.79836 10.2328 2.03278 10.4672C2.2672 10.7016 2.58514 10.8333 2.91666 10.8333H8.33333V16.25C8.33333 16.5815 8.46503 16.8994 8.69945 17.1338C8.93387 17.3683 9.25181 17.5 9.58333 17.5C9.91485 17.5 10.2328 17.3683 10.4672 17.1338C10.7016 16.8994 10.8333 16.5815 10.8333 16.25V10.8333H16.25C16.5815 10.8333 16.8995 10.7016 17.1339 10.4672C17.3683 10.2328 17.5 9.91481 17.5 9.58329C17.5 9.25177 17.3683 8.93383 17.1339 8.69941C16.8995 8.46499 16.5815 8.33329 16.25 8.33329H10.8333V2.91663Z" fill="#47ADDD"/>
</svg>
