<svg width="34" height="35" viewBox="0 0 34 35" fill="none" xmlns="http://www.w3.org/2000/svg">
<path d="M20.0263 3.60526C20.0263 2.78658 19.7111 1.99844 19.1453 1.41499C18.5791 0.83102 17.8077 0.5 17 0.5C16.1923 0.5 15.4209 0.83102 14.8547 1.41499C14.2889 1.99844 13.9737 2.78658 13.9737 3.60526V14.3947H3.52632C2.71864 14.3947 1.94727 14.7258 1.38099 15.3097C0.815223 15.8932 0.5 16.6813 0.5 17.5C0.5 18.3187 0.815223 19.1068 1.38099 19.6903C1.94727 20.2742 2.71864 20.6053 3.52632 20.6053H13.9737V31.3947C13.9737 32.2134 14.2889 33.0016 14.8547 33.585C15.4209 34.169 16.1923 34.5 17 34.5C17.8077 34.5 18.5791 34.169 19.1453 33.585C19.7111 33.0016 20.0263 32.2134 20.0263 31.3947V20.6053H30.4737C31.2814 20.6053 32.0527 20.2742 32.619 19.6903C33.1848 19.1068 33.5 18.3187 33.5 17.5C33.5 16.6813 33.1848 15.8932 32.619 15.3097C32.0527 14.7258 31.2814 14.3947 30.4737 14.3947H20.0263V3.60526Z" fill="white" stroke="white"/>
</svg>
