<svg width="21" height="21" viewBox="0 0 21 21" fill="none" xmlns="http://www.w3.org/2000/svg">
<path d="M12.6946 15.5224L11.4679 16.7582V11.4442C11.4679 11.1921 11.3677 10.9503 11.1894 10.772C11.0111 10.5937 10.7692 10.4936 10.517 10.4936C10.2648 10.4936 10.023 10.5937 9.84464 10.772C9.66631 10.9503 9.56613 11.1921 9.56613 11.4442V16.7582L8.33947 15.5224C8.25081 15.4337 8.14555 15.3634 8.02971 15.3154C7.91387 15.2675 7.78971 15.2428 7.66433 15.2428C7.53894 15.2428 7.41479 15.2675 7.29894 15.3154C7.1831 15.3634 7.07785 15.4337 6.98919 15.5224C6.90053 15.611 6.8302 15.7162 6.78222 15.832C6.73423 15.9478 6.70954 16.0719 6.70954 16.1973C6.70954 16.3226 6.73423 16.4468 6.78222 16.5626C6.8302 16.6784 6.90053 16.7836 6.98919 16.8722L9.84189 19.7241C9.93233 19.8106 10.039 19.8785 10.1557 19.9237C10.2695 19.974 10.3926 20 10.517 20C10.6415 20 10.7646 19.974 10.8784 19.9237C10.9951 19.8785 11.1017 19.8106 11.1922 19.7241L14.0449 16.8722C14.2239 16.6932 14.3245 16.4504 14.3245 16.1973C14.3245 15.9441 14.2239 15.7014 14.0449 15.5224C13.8658 15.3434 13.623 15.2428 13.3697 15.2428C13.1165 15.2428 12.8737 15.3434 12.6946 15.5224ZM16.6218 4.99899C16.0408 3.66432 15.0381 2.55691 13.7673 1.84647C12.4965 1.13602 11.0277 0.861726 9.58607 1.06561C8.14441 1.2695 6.8094 1.94032 5.78559 2.97528C4.76178 4.01024 4.10566 5.35225 3.91778 6.79566C3.01118 7.01271 2.21588 7.55505 1.68291 8.31968C1.14995 9.08432 0.916434 10.018 1.02672 10.9434C1.137 11.8688 1.58341 12.7215 2.28115 13.3396C2.9789 13.9577 3.87939 14.298 4.81163 14.2961C5.06382 14.2961 5.30568 14.1959 5.48401 14.0176C5.66234 13.8393 5.76253 13.5976 5.76253 13.3454C5.76253 13.0933 5.66234 12.8515 5.48401 12.6732C5.30568 12.495 5.06382 12.3948 4.81163 12.3948C4.30724 12.3948 3.8235 12.1945 3.46685 11.838C3.11019 11.4814 2.90982 10.9978 2.90982 10.4936C2.90982 9.98933 3.11019 9.50574 3.46685 9.14919C3.8235 8.79264 4.30724 8.59233 4.81163 8.59233C5.06382 8.59233 5.30568 8.49218 5.48401 8.3139C5.66234 8.13562 5.76253 7.89383 5.76253 7.64171C5.76496 6.51739 6.16598 5.43033 6.89435 4.57366C7.62273 3.71699 8.63129 3.14618 9.74086 2.96264C10.8504 2.77909 11.9892 2.9947 12.9547 3.57116C13.9203 4.14762 14.6502 5.0476 15.0148 6.11121C15.0691 6.27457 15.1669 6.4201 15.2975 6.53227C15.4281 6.64445 15.5868 6.71905 15.7565 6.74813C16.3899 6.86778 16.964 7.19834 17.3854 7.68595C17.8068 8.17355 18.0506 8.78945 18.0771 9.43329C18.1035 10.0771 17.9111 10.7109 17.5312 11.2315C17.1512 11.752 16.6061 12.1285 15.9847 12.2998C15.8636 12.331 15.7498 12.3857 15.6498 12.4609C15.5499 12.5361 15.4657 12.6302 15.4021 12.7379C15.3385 12.8456 15.2968 12.9647 15.2793 13.0885C15.2618 13.2124 15.2688 13.3384 15.3001 13.4595C15.3313 13.5806 15.3861 13.6944 15.4612 13.7943C15.5364 13.8942 15.6306 13.9784 15.7383 14.0419C15.846 14.1055 15.9652 14.1472 16.0891 14.1647C16.2129 14.1822 16.339 14.1752 16.4602 14.144C17.4609 13.8796 18.348 13.296 18.9867 12.4818C19.6255 11.6675 19.981 10.6672 19.9993 9.63257C20.0175 8.59797 19.6976 7.58567 19.088 6.74938C18.4785 5.9131 17.6126 5.29852 16.6218 4.99899Z" fill="white" stroke="white" stroke-width="0.3"/>
</svg>
