<svg width="30" height="30" viewBox="0 0 30 30" fill="none" xmlns="http://www.w3.org/2000/svg">
<path d="M29.9175 2.79495L22.6962 28.3981C22.577 28.8301 22.3276 29.2149 21.9819 29.5001C21.6362 29.7853 21.211 29.9571 20.7641 29.992C20.7004 29.9975 20.637 30.0002 20.574 30C20.1583 30.0012 19.7509 29.8835 19.3999 29.6607C19.0489 29.4378 18.7691 29.1192 18.5934 28.7424L13.5208 18.0337L20.8422 10.7124C21.0484 10.5062 21.1642 10.2266 21.1642 9.93506C21.1642 9.64351 21.0484 9.3639 20.8422 9.15774C20.636 8.95159 20.3564 8.83577 20.0649 8.83577C19.7733 8.83577 19.4937 8.95159 19.2876 9.15774L11.9662 16.4791L1.25737 11.4066C0.85287 11.2149 0.516483 10.9044 0.293173 10.5165C0.0698637 10.1286 -0.0297297 9.68182 0.00770401 9.2358C0.0451377 8.78978 0.217815 8.36581 0.502657 8.02055C0.7875 7.6753 1.17094 7.42521 1.60172 7.3037L27.2048 0.0825251C27.5809 -0.02354 27.9785 -0.0274346 28.3566 0.0712424C28.7347 0.169919 29.0797 0.367601 29.3561 0.643932C29.6324 0.920262 29.8301 1.26525 29.9288 1.64338C30.0274 2.02151 30.0235 2.4191 29.9175 2.79522V2.79495Z" fill="white"/>
</svg>
