<svg width="59" height="41" viewBox="0 0 59 41" fill="none" xmlns="http://www.w3.org/2000/svg">
<path d="M38.7188 20.5C38.7188 22.945 37.7475 25.2898 36.0186 27.0186C34.2898 28.7475 31.945 29.7188 29.5 29.7188C27.055 29.7188 24.7102 28.7475 22.9814 27.0186C21.2525 25.2898 20.2813 22.945 20.2812 20.5C20.2813 18.055 21.2525 15.7102 22.9814 13.9814C24.7102 12.2525 27.055 11.2812 29.5 11.2812C31.945 11.2812 34.2898 12.2525 36.0186 13.9814C37.7475 15.7102 38.7188 18.055 38.7188 20.5V20.5Z" fill="#47ADDD" fill-opacity="0.78"/>
<path d="M0 20.5C0 20.5 11.0625 0.21875 29.5 0.21875C47.9375 0.21875 59 20.5 59 20.5C59 20.5 47.9375 40.7812 29.5 40.7812C11.0625 40.7812 0 20.5 0 20.5ZM29.5 33.4062C32.923 33.4062 36.2057 32.0465 38.6261 29.6261C41.0465 27.2057 42.4062 23.923 42.4062 20.5C42.4062 17.077 41.0465 13.7943 38.6261 11.3739C36.2057 8.95351 32.923 7.59375 29.5 7.59375C26.077 7.59375 22.7943 8.95351 20.3739 11.3739C17.9535 13.7943 16.5938 17.077 16.5938 20.5C16.5938 23.923 17.9535 27.2057 20.3739 29.6261C22.7943 32.0465 26.077 33.4062 29.5 33.4062V33.4062Z" fill="#47ADDD" fill-opacity="0.78"/>
</svg>
