<svg width="10" height="14" viewBox="0 0 10 14" fill="none" xmlns="http://www.w3.org/2000/svg">
<path d="M7.86 8.52663L5 11.3933L2.14 8.52663C2.01446 8.40109 1.8442 8.33057 1.66666 8.33057C1.48913 8.33057 1.31887 8.40109 1.19333 8.52663C1.06779 8.65216 0.997269 8.82242 0.997269 8.99996C0.997269 9.17749 1.06779 9.34776 1.19333 9.47329L4.52666 12.8066C4.58864 12.8691 4.66237 12.9187 4.74361 12.9526C4.82485 12.9864 4.91199 13.0038 5 13.0038C5.08801 13.0038 5.17514 12.9864 5.25638 12.9526C5.33762 12.9187 5.41136 12.8691 5.47333 12.8066L8.80666 9.47329C8.86882 9.41113 8.91813 9.33734 8.95177 9.25613C8.98541 9.17491 9.00272 9.08787 9.00272 8.99996C9.00272 8.91205 8.98541 8.82501 8.95177 8.74379C8.91813 8.66258 8.86882 8.58879 8.80666 8.52663C8.7445 8.46447 8.67071 8.41516 8.5895 8.38152C8.50828 8.34788 8.42124 8.33057 8.33333 8.33057C8.24542 8.33057 8.15838 8.34788 8.07716 8.38152C7.99595 8.41516 7.92216 8.46447 7.86 8.52663ZM2.14 5.47329L5 2.60663L7.86 5.47329C7.92197 5.53578 7.99571 5.58537 8.07695 5.61922C8.15819 5.65307 8.24532 5.67049 8.33333 5.67049C8.42134 5.67049 8.50848 5.65307 8.58972 5.61922C8.67095 5.58537 8.74469 5.53578 8.80666 5.47329C8.86915 5.41132 8.91875 5.33758 8.95259 5.25634C8.98644 5.1751 9.00386 5.08797 9.00386 4.99996C9.00386 4.91195 8.98644 4.82481 8.95259 4.74357C8.91875 4.66234 8.86915 4.5886 8.80666 4.52663L5.47333 1.19329C5.41136 1.13081 5.33762 1.08121 5.25638 1.04737C5.17514 1.01352 5.08801 0.996094 5 0.996094C4.91199 0.996094 4.82485 1.01352 4.74361 1.04737C4.66237 1.08121 4.58864 1.13081 4.52666 1.19329L1.19333 4.52663C1.06779 4.65216 0.997269 4.82242 0.997269 4.99996C0.997269 5.17749 1.06779 5.34776 1.19333 5.47329C1.31887 5.59883 1.48913 5.66935 1.66666 5.66935C1.8442 5.66935 2.01446 5.59883 2.14 5.47329Z" fill="white"/>
</svg>
