<svg width="27" height="27" viewBox="0 0 27 27" fill="none" xmlns="http://www.w3.org/2000/svg">
<path d="M14.0462 27C13.2894 27.0028 12.5612 26.7001 12.0271 26.1631L0.836836 14.9738C0.545081 14.683 0.319934 14.3322 0.176948 13.9459C0.0339611 13.5595 -0.0234552 13.1467 0.00866519 12.7359L0.722606 3.35893C0.771929 2.67626 1.06605 2.03436 1.55087 1.5513C2.03568 1.06824 2.67859 0.776508 3.36133 0.729768L12.7368 0.0157092C12.811 -1.17043e-07 12.8839 0 12.9581 0C13.7149 0 14.4388 0.299905 14.9714 0.836877L26.1632 12.0247C26.4285 12.29 26.6389 12.6049 26.7825 12.9515C26.9261 13.2981 27 13.6696 27 14.0448C27 14.42 26.9261 14.7915 26.7825 15.1381C26.6389 15.4847 26.4285 15.7996 26.1632 16.0649L16.0652 26.1631C15.8007 26.4292 15.486 26.6401 15.1395 26.7838C14.7929 26.9274 14.4213 27.0009 14.0462 27ZM7.98766 5.1298C7.51805 5.12993 7.05571 5.2459 6.64161 5.46742C6.2275 5.68894 5.87441 6.00919 5.6136 6.39979C5.35279 6.79039 5.19233 7.2393 5.1464 7.70674C5.10048 8.17418 5.17053 8.64574 5.35034 9.07964C5.53015 9.51354 5.81417 9.8964 6.17725 10.1943C6.54033 10.4922 6.97126 10.6959 7.43187 10.7875C7.89248 10.879 8.36855 10.8556 8.81792 10.7191C9.2673 10.5827 9.6761 10.3376 10.0081 10.0054L10.0181 9.99682L10.0281 9.98682L10.0167 9.99682C10.4136 9.59633 10.6831 9.08728 10.7913 8.53383C10.8994 7.98038 10.8413 7.4073 10.6243 6.88682C10.4073 6.36634 10.0412 5.92174 9.57196 5.60906C9.10274 5.29639 8.55149 5.12963 7.98766 5.1298V5.1298Z" fill="#47ADDD"/>
</svg>
