<svg width="21" height="28" viewBox="0 0 21 28" fill="none" xmlns="http://www.w3.org/2000/svg">
<path d="M5.39875 1.75H2.625C1.92881 1.75 1.26113 2.02656 0.768845 2.51885C0.276561 3.01113 0 3.67881 0 4.375V25.375C0 26.0712 0.276561 26.7389 0.768845 27.2312C1.26113 27.7234 1.92881 28 2.625 28H18.375C19.0712 28 19.7389 27.7234 20.2312 27.2312C20.7234 26.7389 21 26.0712 21 25.375V4.375C21 3.67881 20.7234 3.01113 20.2312 2.51885C19.7389 2.02656 19.0712 1.75 18.375 1.75H15.6013C15.4202 1.23799 15.0849 0.794725 14.6414 0.481299C14.1979 0.167874 13.6681 -0.00028434 13.125 3.60914e-07H7.875C7.33193 -0.00028434 6.80214 0.167874 6.35864 0.481299C5.91514 0.794725 5.57977 1.23799 5.39875 1.75V1.75ZM7.875 1.75H13.125C13.3571 1.75 13.5796 1.84219 13.7437 2.00628C13.9078 2.17038 14 2.39294 14 2.625C14 2.85706 13.9078 3.07962 13.7437 3.24372C13.5796 3.40781 13.3571 3.5 13.125 3.5H7.875C7.64294 3.5 7.42038 3.40781 7.25628 3.24372C7.09219 3.07962 7 2.85706 7 2.625C7 2.39294 7.09219 2.17038 7.25628 2.00628C7.42038 1.84219 7.64294 1.75 7.875 1.75V1.75ZM8.75 11.375C8.75 11.1429 8.84219 10.9204 9.00628 10.7563C9.17038 10.5922 9.39294 10.5 9.625 10.5H15.75C15.9821 10.5 16.2046 10.5922 16.3687 10.7563C16.5328 10.9204 16.625 11.1429 16.625 11.375C16.625 11.6071 16.5328 11.8296 16.3687 11.9937C16.2046 12.1578 15.9821 12.25 15.75 12.25H9.625C9.39294 12.25 9.17038 12.1578 9.00628 11.9937C8.84219 11.8296 8.75 11.6071 8.75 11.375ZM8.75 16.625C8.75 16.3929 8.84219 16.1704 9.00628 16.0063C9.17038 15.8422 9.39294 15.75 9.625 15.75H15.75C15.9821 15.75 16.2046 15.8422 16.3687 16.0063C16.5328 16.1704 16.625 16.3929 16.625 16.625C16.625 16.8571 16.5328 17.0796 16.3687 17.2437C16.2046 17.4078 15.9821 17.5 15.75 17.5H9.625C9.39294 17.5 9.17038 17.4078 9.00628 17.2437C8.84219 17.0796 8.75 16.8571 8.75 16.625ZM8.75 21.875C8.75 21.6429 8.84219 21.4204 9.00628 21.2563C9.17038 21.0922 9.39294 21 9.625 21H15.75C15.9821 21 16.2046 21.0922 16.3687 21.2563C16.5328 21.4204 16.625 21.6429 16.625 21.875C16.625 22.1071 16.5328 22.3296 16.3687 22.4937C16.2046 22.6578 15.9821 22.75 15.75 22.75H9.625C9.39294 22.75 9.17038 22.6578 9.00628 22.4937C8.84219 22.3296 8.75 22.1071 8.75 21.875ZM7 11.375C7 11.7231 6.86172 12.0569 6.61558 12.3031C6.36944 12.5492 6.0356 12.6875 5.6875 12.6875C5.3394 12.6875 5.00556 12.5492 4.75942 12.3031C4.51328 12.0569 4.375 11.7231 4.375 11.375C4.375 11.0269 4.51328 10.6931 4.75942 10.4469C5.00556 10.2008 5.3394 10.0625 5.6875 10.0625C6.0356 10.0625 6.36944 10.2008 6.61558 10.4469C6.86172 10.6931 7 11.0269 7 11.375ZM7 16.625C7 16.9731 6.86172 17.3069 6.61558 17.5531C6.36944 17.7992 6.0356 17.9375 5.6875 17.9375C5.3394 17.9375 5.00556 17.7992 4.75942 17.5531C4.51328 17.3069 4.375 16.9731 4.375 16.625C4.375 16.2769 4.51328 15.9431 4.75942 15.6969C5.00556 15.4508 5.3394 15.3125 5.6875 15.3125C6.0356 15.3125 6.36944 15.4508 6.61558 15.6969C6.86172 15.9431 7 16.2769 7 16.625ZM5.6875 23.1875C5.3394 23.1875 5.00556 23.0492 4.75942 22.8031C4.51328 22.5569 4.375 22.2231 4.375 21.875C4.375 21.5269 4.51328 21.1931 4.75942 20.9469C5.00556 20.7008 5.3394 20.5625 5.6875 20.5625C6.0356 20.5625 6.36944 20.7008 6.61558 20.9469C6.86172 21.1931 7 21.5269 7 21.875C7 22.2231 6.86172 22.5569 6.61558 22.8031C6.36944 23.0492 6.0356 23.1875 5.6875 23.1875Z" fill="#828596"/>
</svg>
