<svg width="13" height="13" viewBox="0 0 13 13" fill="none" xmlns="http://www.w3.org/2000/svg">
<path d="M2.4375 12.1875H10.5625V10.1562C10.5616 9.4023 10.2618 8.67949 9.72863 8.14637C9.19551 7.61325 8.4727 7.31336 7.71875 7.3125H5.28125C4.5273 7.31336 3.80449 7.61325 3.27137 8.14637C2.73825 8.67949 2.43836 9.4023 2.4375 10.1562V12.1875Z" fill="#555555"/>
<path d="M3.65625 3.65625C3.65625 4.21869 3.82303 4.7685 4.13551 5.23615C4.44798 5.7038 4.89212 6.0683 5.41174 6.28353C5.93137 6.49877 6.50316 6.55508 7.05479 6.44536C7.60642 6.33563 8.11313 6.06479 8.51084 5.66708C8.90854 5.26938 9.17938 4.76267 9.28911 4.21104C9.39884 3.6594 9.34252 3.08762 9.12728 2.56799C8.91205 2.04837 8.54756 1.60423 8.0799 1.29176C7.61225 0.979283 7.06244 0.8125 6.5 0.8125C5.74579 0.8125 5.02247 1.11211 4.48917 1.64542C3.95586 2.17872 3.65625 2.90204 3.65625 3.65625Z" fill="#555555"/>
</svg>
