<svg width="38" height="38" viewBox="0 0 38 38" fill="none" xmlns="http://www.w3.org/2000/svg">
<path d="M9.49996 20.5833C6.01663 20.5833 3.16663 23.4333 3.16663 26.9167C3.16663 30.4 6.01663 33.25 9.49996 33.25C12.9833 33.25 15.8333 30.4 15.8333 26.9167C15.8333 23.4333 12.9833 20.5833 9.49996 20.5833ZM19 4.75C15.5166 4.75 12.6666 7.6 12.6666 11.0833C12.6666 14.5667 15.5166 17.4167 19 17.4167C22.4833 17.4167 25.3333 14.5667 25.3333 11.0833C25.3333 7.6 22.4833 4.75 19 4.75ZM28.5 20.5833C25.0166 20.5833 22.1666 23.4333 22.1666 26.9167C22.1666 30.4 25.0166 33.25 28.5 33.25C31.9833 33.25 34.8333 30.4 34.8333 26.9167C34.8333 23.4333 31.9833 20.5833 28.5 20.5833Z" fill="url(#paint0_linear_27_1021)"/>
<defs>
<linearGradient id="paint0_linear_27_1021" x1="44.7857" y1="6.78571" x2="-1.63104e-05" y2="32.5714" gradientUnits="userSpaceOnUse">
<stop stop-color="#C706FE"/>
<stop offset="1" stop-color="#1EDCD3"/>
</linearGradient>
</defs>
</svg>
